<?xml version="1.0" encoding="utf-8"?>
<!-- Generator: Adobe Illustrator 16.0.0, SVG Export Plug-In . SVG Version: 6.00 Build 0)  -->
<!DOCTYPE svg PUBLIC "-//W3C//DTD SVG 1.1//EN" "http://www.w3.org/Graphics/SVG/1.1/DTD/svg11.dtd">
<svg version="1.1" id="Layer_1" xmlns="http://www.w3.org/2000/svg" xmlns:xlink="http://www.w3.org/1999/xlink" x="0px" y="0px"
	 width="127.219px" height="127.22px" viewBox="0 0 127.219 127.22" enable-background="new 0 0 127.219 127.22"
	 xml:space="preserve">
<g>
	<g>
		<path fill="#00B8F0" d="M63.609,0C28.534,0,0,28.535,0,63.609c0,35.076,28.534,63.611,63.609,63.611s63.609-28.535,63.609-63.611
			C127.219,28.535,98.685,0,63.609,0z M66.637,66.212c-1.322-0.232-2.678-0.281-3.785,0.061c-0.019,0.006-0.038,0.01-0.057,0.016
			c-2.78-0.428-6.656,0.854-8.641,2.534c-0.903,0.765-3.054,4.001-4.086,3.767c-2.369-0.535-5.629-3.032-6.442-5.439
			c-1.22-9.937-1.029-19.637,0.478-29.608c4.926,2.048,11.967,0.805,16.899,0.32c3.417-0.336,6.989-1.156,10.276-2.542
			c2.502,5.45,7.917,8.983,14.064,9.335c0.651,7.416,0.552,14.748-0.345,22.21c-0.025,0.049-0.06,0.086-0.078,0.145
			c-0.73,2.451-4.087,5.033-6.501,5.58c-1.032,0.234-3.183-3.002-4.086-3.767C72.566,67.325,69.297,66.153,66.637,66.212z
			 M70.813,74.247c-3.136,0.398-6.278,0.205-9.426,0.145c-0.067,0.018-0.131,0.041-0.211,0.041
			c-0.946-0.008-1.878-0.092-2.806-0.275c-1.004-0.201-0.578-1.732,0.422-1.533c0.489,0.098,0.979,0.147,1.472,0.178
			c0.038-0.005,0.067-0.021,0.109-0.021c3.486,0.025,6.967,0.318,10.439-0.121C71.827,72.528,71.814,74.12,70.813,74.247z
			 M53.742,101.075c0.625-3.332,0.824-6.838,1.146-10.246c2.732,1.365,5.725,2.113,9.033,2.486c0.103,0.043,0.219,0.066,0.36,0.051
			c0.006,0,0.011-0.002,0.017-0.002c0.005,0,0.01,0.002,0.016,0.002c0.142,0.016,0.259-0.008,0.36-0.051
			c3.423-0.385,6.511-1.166,9.318-2.625c0.329,3.451,0.524,7.008,1.157,10.385c1.068,5.688-6.686,6.834-10.703,7.494
			C60.428,107.909,52.675,106.763,53.742,101.075z M104.818,107.754c-0.995-1.585-1.992-3.169-2.97-4.765
			c-0.513-0.836-1.3-2.66-2.257-3.184c-7.215-3.947-16.376-3.615-23.754-7.116c-0.035-0.017-0.067-0.015-0.102-0.026
			c-0.07-0.967-0.142-1.928-0.236-2.852c1.336-0.852,2.611-1.863,3.816-3.121c3.535-3.691,4.727-7.6,6.144-12.367
			c0.767-2.58,1.279-5.41,1.61-8.295c1.413,0.332,2.996-0.07,3.517-1.67c0.396-1.217,0.328-2.547,0.275-3.815
			c-0.085-2.02,1.004-3.894,1.311-5.873c0.271-1.751,0.506-5.267-1.361-6.375c-0.063-0.036-0.13-0.059-0.193-0.091
			c-0.619-8.717,3.962-30.778-10.031-29.771c-0.789-3.041-4.765-5.214-7.386-6.11c-5.2-1.777-10.589-1.984-15.991-1.341
			c-3.315,0.394-7.204,2.287-9.479,4.704c-1.632,1.733-3.612,3.489-5.587,4.826c-1.42,0.962-3.704,0.968-4.593,2.422
			c-0.136,0.222-0.161,0.583,0,0.802c0.453,0.618,0.959,1.122,1.604,1.573c0.929,0.647-3.139,1.2-3.872,1.43
			c-0.374,0.117-0.724,0.566-0.555,0.978c0.581,1.414,1.852,2.39,3.246,2.958c-0.882,0.703-2.105,0.965-2.887,1.799
			c-0.315,0.337-0.328,1.036,0.161,1.248c0.206,0.089,2.998,1.346,3.106,0.912c-0.367,1.47-0.368,3.182-0.538,4.697
			c-0.228,2.044-0.277,4.078-0.279,6.136c0,0.394,0.066,3.112,0.208,2.782c-0.041,0.096-0.052,0.189-0.059,0.281
			c-1.549,1.287-1.347,4.489-1.091,6.143c0.306,1.979,1.395,3.853,1.31,5.873c-0.053,1.268-0.121,2.598,0.275,3.815
			c0.5,1.535,1.981,1.979,3.35,1.717c0.331,2.867,0.843,5.682,1.605,8.248c1.417,4.768,2.608,8.676,6.145,12.367
			c1.288,1.346,2.658,2.412,4.099,3.297c-0.085,0.852-0.153,1.73-0.218,2.619c-0.111,0.002-0.227,0.025-0.346,0.083
			c-7.379,3.501-16.54,3.169-23.754,7.116c-0.957,0.523-1.744,2.348-2.257,3.184c-1.149,1.877-2.323,3.74-3.494,5.604
			C10.963,97.521,3.179,81.46,3.179,63.609c0-33.321,27.109-60.43,60.431-60.43s60.432,27.109,60.432,60.43
			C124.041,81.015,116.634,96.716,104.818,107.754z M87.463,54.022c-0.058-1.295-0.122-2.567-0.19-3.834
			c0.13-0.054,0.253-0.132,0.353-0.269c0.588-0.807,1.092-0.976,1.514-0.775c0.09,0.143,0.226,0.251,0.388,0.317
			c0.922,1.063,1.309,3.984,1.114,4.788c-0.29,1.192-0.603,2.354-0.958,3.528c-0.325,1.073-0.07,7.307-2.441,6.654
			C87.562,60.88,87.606,57.296,87.463,54.022z M41.355,64.452c-2.184,0.303-1.954-5.629-2.271-6.674
			c-0.355-1.175-0.668-2.336-0.957-3.528c-0.299-1.227,0.756-7.432,3.015-4.33c0.054,0.074,0.121,0.122,0.185,0.171
			c-0.07,1.299-0.135,2.604-0.194,3.932C40.988,57.302,41.034,60.896,41.355,64.452z"/>
	</g>
</g>
</svg>
