<?xml version="1.0" encoding="utf-8"?>
<!-- Generator: Adobe Illustrator 16.0.0, SVG Export Plug-In . SVG Version: 6.00 Build 0)  -->
<!DOCTYPE svg PUBLIC "-//W3C//DTD SVG 1.1//EN" "http://www.w3.org/Graphics/SVG/1.1/DTD/svg11.dtd">
<svg version="1.1" id="Layer_1" xmlns="http://www.w3.org/2000/svg" xmlns:xlink="http://www.w3.org/1999/xlink" x="0px" y="0px"
	 width="23.122px" height="23.12px" viewBox="0 0 23.122 23.12" enable-background="new 0 0 23.122 23.12" xml:space="preserve">
<g>
	<path fill="#002F41" d="M11.562,0C5.185,0,0.014,5.164,0.002,11.54C0.001,11.547,0,11.553,0,11.561
		c0,0.457,0.371,0.827,0.827,0.827c0.457,0,0.828-0.37,0.828-0.827c0-0.004-0.001-0.008-0.001-0.01
		c0.006-5.469,4.44-9.898,9.908-9.898c5.472,0,9.909,4.436,9.909,9.908s-4.437,9.908-9.909,9.908c-4.032,0-7.5-2.408-9.047-5.865
		c0.138-0.213,0.219-0.468,0.219-0.74c0-0.754-0.612-1.365-1.366-1.365c-0.755,0-1.366,0.611-1.366,1.365
		c0,0.611,0.401,1.128,0.955,1.303c1.78,4.092,5.858,6.954,10.605,6.954c6.384,0,11.56-5.175,11.56-11.56S17.946,0,11.562,0z"/>
	<g>
		<path fill="#002F41" d="M15.736,10.365h-0.245l0.002-1.153c0.001-0.608-0.147-1.179-0.39-1.698l-1.245,1.607
			c0.001,0.03,0.009,0.059,0.008,0.088l-0.002,1.153l-2.188-0.005l-0.232-0.001l-2.185-0.003l0.001-1.154
			c0.003-1.271,1.038-2.323,2.306-2.32c0.565,0.001,1.075,0.217,1.475,0.56l1.2-1.12c-0.674-0.641-1.563-1.053-2.556-1.074
			c-0.058,0-0.172,0-0.232,0c-2.117,0.035-3.816,1.816-3.82,3.951L7.633,10.35H7.386c-0.379,0-0.69,0.391-0.691,0.876l-0.011,5.792
			c-0.001,0.484,0.309,0.881,0.688,0.883l8.35,0.016c0.383,0,0.693-0.396,0.694-0.879l0.011-5.793
			C16.428,10.76,16.12,10.365,15.736,10.365z M12.339,14.127l-0.004,1.75c0,0.201-0.17,0.37-0.37,0.369l-0.829-0.002
			c-0.2,0-0.366-0.17-0.366-0.371l0.004-1.749c-0.196-0.192-0.308-0.458-0.308-0.751c0.001-0.553,0.432-1.031,0.977-1.05
			c0.059-0.003,0.173-0.003,0.231,0c0.546,0.022,0.974,0.501,0.973,1.054C12.646,13.67,12.533,13.936,12.339,14.127z"/>
		<polygon fill="#002F41" points="11.313,7.622 12.896,9.535 16.439,4.964 13.007,8.166 		"/>
	</g>
</g>
</svg>
