<?xml version="1.0" encoding="utf-8"?>
<!-- Generator: Adobe Illustrator 16.0.0, SVG Export Plug-In . SVG Version: 6.00 Build 0)  -->
<!DOCTYPE svg PUBLIC "-//W3C//DTD SVG 1.1//EN" "http://www.w3.org/Graphics/SVG/1.1/DTD/svg11.dtd">
<svg version="1.1" id="Layer_1" xmlns="http://www.w3.org/2000/svg" xmlns:xlink="http://www.w3.org/1999/xlink" x="0px" y="0px"
	 width="30.439px" height="30.437px" viewBox="0 0 30.439 30.437" enable-background="new 0 0 30.439 30.437" xml:space="preserve">
<path fill="#002F41" d="M15.221,0C6.826,0,0.019,6.798,0.003,15.19C0.002,15.2,0,15.208,0,15.219c0,0.601,0.488,1.089,1.089,1.089
	c0.602,0,1.09-0.488,1.09-1.089c0-0.006-0.002-0.011-0.002-0.015C2.185,8.007,8.022,2.173,15.221,2.173
	c7.204,0,13.045,5.84,13.045,13.045c0,7.203-5.841,13.044-13.045,13.044c-5.307,0-9.873-3.17-11.91-7.722
	C3.493,20.26,3.6,19.925,3.6,19.567c0-0.993-0.805-1.8-1.798-1.8s-1.799,0.807-1.799,1.8c0,0.805,0.528,1.485,1.257,1.715
	c2.343,5.387,7.712,9.154,13.961,9.154c8.405,0,15.219-6.813,15.219-15.218C30.439,6.813,23.626,0,15.221,0z"/>
<g>
	<path fill="#002F41" d="M20.734,13.608H20.41v-1.525c0-2.821-2.238-5.177-5.037-5.229c-0.077,0-0.229,0-0.308,0
		c-2.796,0.052-5.036,2.407-5.036,5.229v1.525H9.705c-0.502,0-0.913,0.518-0.913,1.159v7.651c0,0.64,0.411,1.164,0.913,1.164h11.03
		c0.505,0,0.914-0.524,0.914-1.164v-7.651C21.648,14.126,21.239,13.608,20.734,13.608z M16.255,18.585v2.313
		c0,0.262-0.224,0.486-0.488,0.486h-1.094c-0.267,0-0.485-0.225-0.485-0.486v-2.313c-0.257-0.252-0.407-0.602-0.407-0.99
		c0-0.732,0.567-1.361,1.287-1.39c0.077-0.005,0.229-0.005,0.306,0c0.722,0.028,1.287,0.657,1.287,1.39
		C16.66,17.983,16.511,18.333,16.255,18.585z M18.262,13.608h-2.889h-0.308H12.18v-1.525c0-1.682,1.365-3.071,3.04-3.071
		c1.676,0,3.042,1.389,3.042,3.071V13.608L18.262,13.608z"/>
</g>
</svg>
