<?xml version="1.0" encoding="utf-8"?>
<!-- Generator: Adobe Illustrator 16.0.0, SVG Export Plug-In . SVG Version: 6.00 Build 0)  -->
<!DOCTYPE svg PUBLIC "-//W3C//DTD SVG 1.1//EN" "http://www.w3.org/Graphics/SVG/1.1/DTD/svg11.dtd">
<svg version="1.1" id="Layer_1" xmlns="http://www.w3.org/2000/svg" xmlns:xlink="http://www.w3.org/1999/xlink" x="0px" y="0px"
	 width="43.447px" height="43.443px" viewBox="0 0 43.447 43.443" enable-background="new 0 0 43.447 43.443" xml:space="preserve">
<g>
	<g>
		<path fill="#002F41" d="M21.723,21.048c2.868,0,5.193-2.719,5.193-6.074c0-4.654-2.325-6.08-5.193-6.08
			c-2.866,0-5.189,1.426-5.189,6.08C16.533,18.329,18.856,21.048,21.723,21.048z"/>
		<path fill="#002F41" d="M33.185,29.993l-2.617-5.901c-0.119-0.27-0.332-0.494-0.593-0.627l-4.063-2.117
			c-0.09-0.047-0.198-0.036-0.282,0.021c-1.147,0.868-2.496,1.331-3.907,1.331c-1.405,0-2.758-0.463-3.907-1.331
			c-0.081-0.058-0.19-0.068-0.278-0.021l-4.064,2.117c-0.265,0.133-0.472,0.357-0.592,0.627l-2.622,5.901
			c-0.179,0.405-0.141,0.871,0.1,1.244c0.245,0.372,0.654,0.597,1.099,0.597h20.535c0.44,0,0.852-0.225,1.096-0.597
			C33.329,30.864,33.369,30.398,33.185,29.993z"/>
	</g>
</g>
<path fill="#002F41" d="M21.726,0C9.743,0,0.026,9.704,0.004,21.683C0.004,21.695,0,21.708,0,21.722
	c0,0.859,0.697,1.557,1.555,1.557c0.859,0,1.555-0.697,1.555-1.557c0-0.006-0.003-0.014-0.003-0.02
	C3.119,11.427,11.45,3.103,21.726,3.103c10.282,0,18.619,8.335,18.619,18.619c0,10.282-8.337,18.621-18.619,18.621
	c-7.576,0-14.093-4.529-17-11.025c0.26-0.399,0.412-0.877,0.412-1.391c0-1.417-1.15-2.565-2.567-2.565s-2.567,1.148-2.567,2.565
	c0,1.15,0.754,2.121,1.794,2.448c3.344,7.692,11.007,13.068,19.927,13.068c11.996,0,21.722-9.726,21.722-21.722
	C43.447,9.725,33.722,0,21.726,0z"/>
</svg>
